<svg xmlns="http://www.w3.org/2000/svg" xmlns:xlink="http://www.w3.org/1999/xlink" viewBox="0 0 496.92 219.49"><defs><style>.a{fill:url(#a);}</style><linearGradient id="a" x1="1.54" y1="388.28" x2="498.46" y2="388.28" gradientUnits="userSpaceOnUse"><stop offset="0" stop-color="#2177a5"/><stop offset="0.05" stop-color="#227aa5"/><stop offset="0.42" stop-color="#258fa2"/><stop offset="0.66" stop-color="#2696a1"/></linearGradient></defs><path class="a" d="M467.63,353l-.47.52c-18.79,21-39,40.89-61,58.51-7.59,6-15.4,11.65-23.46,17q-6.7,4.31-13.65,8.23-4.87,2.64-9.86,5.06-4.81,2.24-9.76,4.21c-4.12,1.55-8.29,3-12.51,4.2a142.23,142.23,0,0,1-21.06,4.11,117.16,117.16,0,0,1-27.44-.48,107.06,107.06,0,0,1-28.05-8,114.91,114.91,0,0,1-23.86-14.51c-7.13-5.62-13.46-12.1-19.81-18.57-10.41-10.6-20.67-21.32-31.38-31.61a61.32,61.32,0,0,0,7.39-6.65,78.11,78.11,0,0,0,7.51-9.59,113.63,113.63,0,0,0,6.1-10.6,141.53,141.53,0,0,0,13.81-42.38,66.31,66.31,0,0,0,.6-19.28,26.65,26.65,0,0,0-2.18-7.85,25.06,25.06,0,0,0-4.71-6.24,2.94,2.94,0,0,0-2.92-.22,34.65,34.65,0,0,0-6.11,2.08,63,63,0,0,0-7.31,3.75,34,34,0,0,0-5.25,3.74,182.83,182.83,0,0,0-25.95,31.52,147.24,147.24,0,0,0-13.82,28.42c-.54-13.54-.79-27.09-.3-40.65.06-1.58,0-3.16.1-4.73a2.87,2.87,0,0,0-2.84-.22,33.81,33.81,0,0,0-5.94,2,61.77,61.77,0,0,0-7.1,3.65l-2.92,1.89a14,14,0,0,0-3.46,3.17q-3.42,11-6.91,22a112.77,112.77,0,0,0-24.82-8.78q-3.21-.71-6.47-1.14a172.18,172.18,0,0,1,2-17.35,3,3,0,0,0-3-.23,35.07,35.07,0,0,0-6.12,2.09,64.22,64.22,0,0,0-7.34,3.76l-3,2a13.9,13.9,0,0,0-3.57,3.27l-2.1,6.81a85.1,85.1,0,0,0-15.07,3.89A118.3,118.3,0,0,0,31.76,340c-9.28,5.55-17.81,12.71-23.57,22a44.25,44.25,0,0,0-4.54,9.82,43.07,43.07,0,0,0-2.11,13.11h0a34.44,34.44,0,0,0,7.81,21.65,44.61,44.61,0,0,0,20.32,13.65,61.35,61.35,0,0,0,11.54,2.66A575,575,0,0,0,29.7,490.43c-.25,2.32-.47,4.64-.68,7a3.66,3.66,0,0,0,3.67.28l3.46-1A67.74,67.74,0,0,0,45,492.87a67.21,67.21,0,0,0,8.27-4.95l2.82-2.23A3.69,3.69,0,0,0,58,482.55c1.65-19.83,4.41-39.54,7.93-59.12,2.79-.18,5.58-.44,8.36-.74.31,2.6.61,5.19.89,7.79.67,6,1.2,12.08,1.55,18.13A152.38,152.38,0,0,1,77,467.36a3.14,3.14,0,0,0,3.1.24,37,37,0,0,0,6.46-2.21,67.16,67.16,0,0,0,7.74-4l3.18-2.07a15.3,15.3,0,0,0,3.77-3.45c1.53-2.83,2.86-5.79,4.16-8.73,1.41-3.17,2.76-6.35,4.08-9.55,2.55-6.13,4.91-12.34,7.17-18.57q1-2.73,2-5.46,6.63-2,13.18-4.28c.34,8.94.56,17.88.51,26.82,0,6.75-.24,13.5-.69,20.23-.34,5.14-.81,10.29-1.56,15.39-.1.46-.21.92-.31,1.38-.29,1.26-.59,2.52-.89,3.79-.22.89-.43,1.78-.62,2.69a8.38,8.38,0,0,0-.12,1.3c-.32.75,0,1.17,1,1.25l2.16-.22a37.7,37.7,0,0,0,6.69-2.28,71.15,71.15,0,0,0,8-4.11l3.29-2.14a15.65,15.65,0,0,0,3.91-3.57,7.83,7.83,0,0,1,.77-1.69,12.23,12.23,0,0,0,.63-2.32q.48-1.9.93-3.81c.63-2.64,1.18-5.29,1.72-7.95q1.49-7.36,2.6-14.79c1.45-9.47,2.47-19,3.4-28.55.51-5.29,1-10.6,1.51-15.9.83-.44,1.65-.9,2.47-1.35,9.6,8.71,18.91,17.75,28.17,26.82,6.34,6.2,12.64,12.52,19.42,18.24a129,129,0,0,0,23.87,16.05,106.57,106.57,0,0,0,24.81,9.15,104.17,104.17,0,0,0,25.08,2.53c19.43-.29,38.32-5.59,56.27-12.7a239.39,239.39,0,0,0,27.68-13.19,338.79,338.79,0,0,0,28.95-17.9,403.52,403.52,0,0,0,46.68-38.05A521.87,521.87,0,0,0,487.46,343c3.68-4.3,7.31-8.65,10.79-13.1.41-.67.22-1-.56-1.11a11,11,0,0,0-3.57.75,27.14,27.14,0,0,0-9.59,5.63m-448,10.1a54.59,54.59,0,0,1,4.34-4.13l.73-.53.08,0c1.13-.41,2.25-.78,3.39-1.13a74,74,0,0,1,9.78-1.86,76.05,76.05,0,0,1,10.23-.19c-2.48,7.91-5,15.83-7.35,23.77-4.24,14.07-8.26,28.22-11.89,42.47A40.67,40.67,0,0,1,30,387.75a35.68,35.68,0,0,1-3.2-23.4,45.28,45.28,0,0,1,9.71-19.06ZM71.1,397q.78,6.51,1.61,13c-1-.05-1.91-.11-2.87-.18l-1.35-.11c.55-2.78,1.1-5.56,1.68-8.33l-.06.26.08-.39c.06-.27.12-.55.17-.82,0,.19-.07.38-.11.57.28-1.34.56-2.69.85-4Zm23-15.16c-1.34-13-2.48-26.06-2.65-39.14q4.6,1.59,9.07,3.55A166,166,0,0,1,117,354.92c-3.71,11.86-7.41,23.72-11.23,35.55q-3,9.16-6.06,18.31l-2.61.34c-1-9.08-2.1-18.15-3-27.24Zm35-.73c.38-1.29.77-2.58,1.15-3.87q.47,9.11.93,18.23c.11,2.17.22,4.35.31,6.53l-1.62.48c-2.71.75-5.45,1.45-8.19,2.11q1.13-3.37,2.22-6.75c1.79-5.56,3.51-11.14,5.2-16.73ZM181,323.61a132.16,132.16,0,0,1,13.07-21.81q.52,3.21.73,6.47a83,83,0,0,1-1.91,22,156.88,156.88,0,0,1-10,30.51,127,127,0,0,1-6.34,12.61l-1.07-1q-3.56-3.21-7.2-6.35.75-4.65,1.69-9.25A151.94,151.94,0,0,1,181,323.61Zm-11.13,33.48a3.4,3.4,0,0,1-.07.34,3.4,3.4,0,0,0,.07-.34ZM407,411.32l.44-.35-.44.35Zm-336.8-10,0,.13c0-.13,0-.25.08-.38l-.06.25Z" transform="translate(-1.54 -278.54)"/></svg>