<svg xmlns="http://www.w3.org/2000/svg" viewBox="0 0 864.42 381.82"><defs><style>.a{fill:#2696a1;}</style></defs><path class="a" d="M944.68,330.49l-.81.91c-32.7,36.56-67.78,71.13-106.12,101.77-13.2,10.39-26.79,20.28-40.82,29.53Q785.28,470.19,773.2,477q-8.48,4.61-17.15,8.81-8.4,3.87-17,7.32c-7.16,2.7-14.41,5.15-21.76,7.3a245.43,245.43,0,0,1-36.63,7.15,203.23,203.23,0,0,1-47.73-.82,187.1,187.1,0,0,1-48.8-13.85,200.49,200.49,0,0,1-41.51-25.25c-12.41-9.77-23.41-21.05-34.45-32.29-18.11-18.44-36-37.1-54.6-55a105.34,105.34,0,0,0,12.85-11.58,133.13,133.13,0,0,0,13.07-16.68,191.48,191.48,0,0,0,10.62-18.44,245.93,245.93,0,0,0,24-73.72c1.72-11,2.58-22.48,1-33.54a46.81,46.81,0,0,0-3.79-13.66c-1.89-4-5.16-7.65-8.19-10.84a5.14,5.14,0,0,0-5.1-.39,59.64,59.64,0,0,0-10.62,3.62,110.33,110.33,0,0,0-12.71,6.52,59.85,59.85,0,0,0-9.14,6.5c-16.82,16.73-32.42,34.76-45.13,54.84a255.58,255.58,0,0,0-24.05,49.44c-.94-23.56-1.37-47.13-.52-70.73.1-2.74.08-5.48.18-8.22a5,5,0,0,0-5-.37,57.23,57.23,0,0,0-10.31,3.51A107.43,107.43,0,0,0,368.49,253l-5.08,3.3a24,24,0,0,0-6,5.51q-5.94,19.15-12,38.26a197.28,197.28,0,0,0-43.19-15.27c-3.72-.81-7.48-1.47-11.25-2a298.09,298.09,0,0,1,3.44-30.18,5.15,5.15,0,0,0-5.12-.39,59,59,0,0,0-10.66,3.63,112.78,112.78,0,0,0-12.76,6.54l-5.25,3.42a24.45,24.45,0,0,0-6.22,5.69q-1.81,5.93-3.65,11.85a149.15,149.15,0,0,0-26.22,6.76,205.13,205.13,0,0,0-38,17.79c-16.14,9.65-31,22.1-41,38.2a76.76,76.76,0,0,0-7.9,17.07,74.85,74.85,0,0,0-3.67,22.8h0a59.94,59.94,0,0,0,13.59,37.67c9.06,11.2,21.83,19.13,35.35,23.75A107.24,107.24,0,0,0,202.9,452a1002.57,1002.57,0,0,0-20,117.61q-.65,6.06-1.19,12.12a6.45,6.45,0,0,0,6.39.49l6-1.71a127.92,127.92,0,0,0,29.77-15.25l4.9-3.89a6.43,6.43,0,0,0,3.33-5.47c2.86-34.49,7.68-68.78,13.79-102.84,4.86-.31,9.71-.75,14.54-1.28.54,4.51,1.07,9,1.56,13.54,1.16,10.49,2.08,21,2.7,31.55.63,10.82,1.15,21.79.42,32.62a5.48,5.48,0,0,0,5.4.41,63.55,63.55,0,0,0,11.23-3.83,118.52,118.52,0,0,0,13.46-6.9l5.53-3.6a26.1,26.1,0,0,0,6.57-6c2.66-4.92,5-10.08,7.24-15.19q3.66-8.27,7.1-16.61c4.43-10.67,8.53-21.46,12.47-32.31q1.71-4.74,3.38-9.5,11.56-3.44,22.94-7.44c.6,15.54,1,31.1.89,46.66-.06,11.74-.43,23.48-1.21,35.19-.59,9-1.41,17.89-2.71,26.76l-.54,2.41c-.5,2.2-1,4.39-1.55,6.59-.37,1.56-.75,3.11-1.07,4.68a12.8,12.8,0,0,0-.22,2.26c-.56,1.31,0,2,1.75,2.18l3.75-.39a65.38,65.38,0,0,0,11.63-4,121.2,121.2,0,0,0,13.94-7.14l5.73-3.73a27,27,0,0,0,6.79-6.21,15.61,15.61,0,0,1,1.34-2.94,20.34,20.34,0,0,0,1.1-4c.56-2.2,1.09-4.41,1.62-6.63,1.1-4.58,2-9.2,3-13.83,1.72-8.53,3.21-17.11,4.53-25.72,2.51-16.48,4.29-33.07,5.91-49.66.89-9.21,1.73-18.44,2.63-27.67,1.43-.77,2.87-1.56,4.3-2.35,16.69,15.16,32.89,30.89,49,46.65,11,10.8,22,21.79,33.8,31.74a224.54,224.54,0,0,0,41.51,27.93,186.25,186.25,0,0,0,43.15,15.9,180.36,180.36,0,0,0,43.63,4.41c33.81-.51,66.67-9.73,97.9-22.1a418.53,418.53,0,0,0,48.15-22.94q26-14.33,50.36-31.13c28.75-19.85,55.73-42.32,81.2-66.19a908.48,908.48,0,0,0,68.47-72.07c6.4-7.47,12.71-15,18.77-22.78.7-1.17.38-1.81-1-1.92a18.67,18.67,0,0,0-6.21,1.29c-6.38,2.11-13.47,6.47-16.69,9.79M194.78,317.17a91.4,91.4,0,0,1,7.55-7.18c.42-.32.85-.62,1.27-.93l.14-.06q2.92-1,5.9-2a130.48,130.48,0,0,1,17-3.23,132.36,132.36,0,0,1,17.8-.33c-4.32,13.76-8.64,27.53-12.8,41.35-7.37,24.48-14.35,49.09-20.69,73.87A70.8,70.8,0,0,1,183.45,391c-6.65-12.45-8.16-26.94-5.56-40.7a78.8,78.8,0,0,1,16.89-33.15Zm60.11,90q1.37,11.34,2.81,22.66c-1.67-.08-3.33-.19-5-.31l-2.36-.2q1.43-7.24,2.92-14.48l-.09.46c0-.23.09-.45.14-.68.1-.48.2-.95.29-1.43-.06.33-.13.66-.2,1q.74-3.51,1.48-7Zm39.93-26.36c-2.34-22.56-4.32-45.35-4.6-68.1,5.33,1.84,10.59,3.92,15.77,6.18a288.11,288.11,0,0,1,28.74,15c-6.46,20.63-12.89,41.28-19.54,61.84q-5.16,16-10.54,31.85c-1.52.21-3,.41-4.55.6-1.78-15.79-3.65-31.57-5.28-47.37Zm60.89-1.29q1-3.36,2-6.73c.53,10.57,1.1,21.14,1.62,31.71q.29,5.69.55,11.37l-2.82.83q-7.1,1.95-14.25,3.67,1.95-5.86,3.85-11.74,4.68-14.5,9-29.11Zm90.36-100.09a230.36,230.36,0,0,1,22.74-37.93c.61,3.72,1,7.48,1.28,11.25.88,12.77-.82,25.73-3.34,38.25a272.15,272.15,0,0,1-17.45,53.07,220.79,220.79,0,0,1-11,22l-1.85-1.68q-6.2-5.6-12.54-11.05,1.32-8.07,2.95-16.09a264.43,264.43,0,0,1,19.25-57.77ZM426.72,337.7c0,.2-.08.39-.13.59,0-.2.09-.39.13-.59ZM839.2,432l.76-.61-.76.61ZM253.32,414.64l0,.22c0-.22.09-.44.14-.66l-.09.44Z" transform="translate(-133.89 -201.05)"/></svg>